HIERARCHY
ROOT Hips
{
 OFFSET 0.000000 0.000000 0.000000
 CHANNELS 6 Xposition Yposition Zposition Yrotation Xrotation Zrotation
 JOINT Chest
 {
  OFFSET 0.000000 9.910571 -0.011835
  CHANNELS 3 Yrotation Xrotation Zrotation
  JOINT Chest2
  {
   OFFSET 0.000000 10.789473 0.021497
   CHANNELS 3 Yrotation Xrotation Zrotation
   JOINT Chest3
   {
    OFFSET 0.000000 9.748205 0.000000
    CHANNELS 3 Yrotation Xrotation Zrotation
    JOINT Chest4
    {
     OFFSET 0.000000 9.748205 0.000000
     CHANNELS 3 Yrotation Xrotation Zrotation
     JOINT Neck
     {
      OFFSET 0.000000 13.998479 0.000000
      CHANNELS 3 Yrotation Xrotation Zrotation
      JOINT Head
      {
       OFFSET 0.000000 9.082285 0.051121
       CHANNELS 3 Yrotation Xrotation Zrotation
       End Site
       {
        OFFSET 0.000000 17.246134 0.026702
       }
      }
     }
     JOINT RightCollar
     {
      OFFSET -3.284495 7.824262 0.000000
      CHANNELS 3 Yrotation Xrotation Zrotation
      JOINT RightShoulder
      {
       OFFSET -15.534540 0.000000 0.000000
       CHANNELS 3 Yrotation Xrotation Zrotation
       JOINT RightElbow
       {
        OFFSET 0.000000 -28.251216 0.000000
        CHANNELS 3 Yrotation Xrotation Zrotation
        JOINT RightWrist
        {
         OFFSET 0.000000 -23.418114 0.012537
         CHANNELS 3 Yrotation Xrotation Zrotation
         End Site
         {
          OFFSET 0.000000 -17.723959 0.000000
         }
        }
       }
      }
     }
     JOINT LeftCollar
     {
      OFFSET 3.284495 7.824262 0.000000
      CHANNELS 3 Yrotation Xrotation Zrotation
      JOINT LeftShoulder
      {
       OFFSET 15.534540 0.000000 0.000000
       CHANNELS 3 Yrotation Xrotation Zrotation
       JOINT LeftElbow
       {
        OFFSET 0.000000 -28.251216 0.000000
        CHANNELS 3 Yrotation Xrotation Zrotation
        JOINT LeftWrist
        {
         OFFSET 0.000000 -23.418114 0.012537
         CHANNELS 3 Yrotation Xrotation Zrotation
         End Site
         {
          OFFSET 0.000000 -17.723959 0.000000
         }
        }
       }
      }
     }
    }
   }
  }
 }
 JOINT RightHip
 {
  OFFSET -8.142657 0.057990 0.005917
  CHANNELS 3 Yrotation Xrotation Zrotation
  JOINT RightKnee
  {
   OFFSET 0.000000 -49.716894 0.008478
   CHANNELS 3 Yrotation Xrotation Zrotation
   JOINT RightAnkle
   {
    OFFSET 0.000000 -43.994153 0.004166
    CHANNELS 3 Yrotation Xrotation Zrotation
    JOINT RightToe
    {
     OFFSET 0.000000 -7.619154 17.822051
     CHANNELS 3 Yrotation Xrotation Zrotation
     End Site
     {
      OFFSET 0.000000 -1.595627 7.159905
     }
    }
   }
  }
 }
 JOINT LeftHip
 {
  OFFSET 8.142657 0.057990 0.005917
  CHANNELS 3 Yrotation Xrotation Zrotation
  JOINT LeftKnee
  {
   OFFSET 0.000000 -49.716894 0.008478
   CHANNELS 3 Yrotation Xrotation Zrotation
   JOINT LeftAnkle
   {
    OFFSET 0.000000 -43.994153 0.004166
    CHANNELS 3 Yrotation Xrotation Zrotation
    JOINT LeftToe
    {
     OFFSET 0.000000 -7.619154 17.822051
     CHANNELS 3 Yrotation Xrotation Zrotation
     End Site
     {
      OFFSET 0.000000 -1.595627 7.159905
     }
    }
   }
  }
 }
}
MOTION
Frames: 12
Frame Time: 0.008333
496.503644 57.095632 373.987092 -55.693327 -55.241587 4.271249 -1.317386 22.014847 -3.005433 -0.421614 9.790323 -1.247293 -0.421614 9.790323 -1.247293 -0.295282 7.343640 -0.926366 -5.521800 16.051787 -1.654188 -9.676205 -6.312558 -1.078634 -0.628536 9.553449 12.547380 26.153432 -15.549897 -23.217950 -13.251361 -45.357922 39.293058 10.839455 -8.818745 -13.832807 -2.195151 13.151967 -11.049004 -9.787484 -20.018167 20.415513 29.465571 -67.450989 -22.927679 -34.474605 13.552478 -17.347612 -13.380737 -30.977984 1.336020 -31.296869 71.022808 -44.406380 0.472732 10.016543 -1.132734 0.004799 0.023687 0.017036 13.343770 -30.170538 10.421571 25.973581 71.404995 16.791570 5.924387 9.257741 7.473304 -0.021444 -0.034493 -0.003065
496.509175 57.100412 373.991751 -55.689261 -55.246700 4.268331 -1.313466 22.014090 -3.003828 -0.420159 9.790016 -1.245906 -0.420159 9.790016 -1.245906 -0.294217 7.343405 -0.925352 -5.519647 16.062017 -1.655403 -9.671392 -6.293764 -1.082329 -0.639747 9.549563 12.544597 26.156982 -15.541946 -23.206407 -13.246925 -45.360934 39.282129 10.838378 -8.823989 -13.828403 -2.201488 13.158129 -11.044906 -9.785514 -20.017852 20.416274 29.412054 -67.398242 -22.868408 -34.467171 13.489368 -17.325271 -13.373777 -30.970872 1.324565 -31.293278 71.019676 -44.394162 0.477363 10.016520 -1.135690 0.007211 0.025092 0.016751 13.350269 -30.157550 10.418421 25.983386 71.395230 16.800819 5.870935 9.271779 7.471329 -0.023496 -0.033362 -0.004165
496.511964 57.105005 373.997150 -55.678450 -55.249619 4.263494 -1.309186 22.015026 -2.999998 -0.419684 9.790329 -1.246118 -0.419684 9.790329 -1.246118 -0.293857 7.343639 -0.925518 -5.519684 16.069747 -1.655474 -9.671158 -6.279434 -1.082949 -0.645906 9.545029 12.549607 26.146807 -15.533520 -23.199643 -13.239759 -45.369665 39.270750 10.836021 -8.820239 -13.816402 -2.207893 13.159401 -11.040901 -9.781119 -20.017903 20.418250 29.415217 -67.393641 -22.864215 -34.474358 13.472826 -17.331850 -13.372604 -30.967071 1.308536 -31.295776 71.014379 -44.393963 0.477800 10.014862 -1.132870 0.001488 0.026037 0.013129 13.348332 -30.148617 10.414832 25.998317 71.388352 16.808982 5.931087 9.252087 7.479024 -0.012762 -0.026432 0.002065
496.514624 57.109012 374.000110 -55.668829 -55.256074 4.257816 -1.307014 22.012103 -2.997332 -0.420003 9.789952 -1.246692 -0.420003 9.789952 -1.246692 -0.294087 7.343358 -0.925943 -5.517106 16.077199 -1.655714 -9.666007 -6.265743 -1.084804 -0.647149 9.549758 12.550601 26.150014 -15.531166 -23.198208 -13.237256 -45.367917 39.266166 10.835665 -8.826360 -13.819742 -2.211494 13.165521 -11.036575 -9.781383 -20.011309 20.422679 29.375888 -67.342936 -22.820001 -34.471440 13.420044 -17.309782 -13.373584 -30.963303 1.296740 -31.292533 71.016708 -44.388007 0.522878 10.017359 -1.126703 0.006166 0.023253 0.012342 13.348474 -30.139226 10.417332 26.001041 71.387808 16.803636 5.923926 9.252457 7.485714 -0.011876 -0.026536 0.002858
496.520044 57.112063 374.003359 -55.665527 -55.257812 4.261234 -1.301428 22.009271 -2.997548 -0.415745 9.789105 -1.246413 -0.415745 9.789105 -1.246413 -0.290908 7.342713 -0.925804 -5.521759 16.086421 -1.656259 -9.674137 -6.248483 -1.084744 -0.664107 9.553240 12.549848 26.154063 -15.528345 -23.195789 -13.242213 -45.368947 39.261215 10.835531 -8.834177 -13.811952 -2.225292 13.172541 -11.027184 -9.780349 -20.006931 20.425383 29.391882 -67.338276 -22.829142 -34.478889 13.396886 -17.326326 -13.371858 -30.959611 1.292033 -31.317581 71.004180 -44.413541 0.504655 10.014976 -1.129504 0.011304 0.024971 0.010373 13.358822 -30.133221 10.410468 26.000908 71.381638 16.801635 5.827790 9.286049 7.480852 -0.018943 -0.033366 -0.000124
496.520844 57.114912 374.002861 -55.666238 -55.262244 4.255887 -1.292920 22.006908 -2.990637 -0.413716 9.788576 -1.245227 -0.413716 9.788576 -1.245227 -0.289411 7.342311 -0.924950 -5.522526 16.095116 -1.657178 -9.674921 -6.232390 -1.086740 -0.670354 9.553656 12.550131 26.161417 -15.522582 -23.196691 -13.251287 -45.360330 39.258951 10.842540 -8.841687 -13.815513 -2.232402 13.178597 -11.021707 -9.777340 -20.005996 20.422704 29.347197 -67.285997 -22.777368 -34.482995 13.341421 -17.294530 -13.371997 -30.954761 1.296712 -31.320778 71.001250 -44.413913 0.528033 10.021959 -1.127388 0.015382 0.020790 0.010149 13.366578 -30.127751 10.414119 25.996821 71.375298 16.797244 5.880680 9.272330 7.497149 -0.016646 -0.027736 -0.000849
496.521972 57.118656 374.004188 -55.662631 -55.268175 4.253290 -1.293265 22.010413 -2.991522 -0.413991 9.789846 -1.245830 -0.413991 9.789846 -1.245830 -0.289604 7.343265 -0.925395 -5.519422 16.098751 -1.657956 -9.668736 -6.225834 -1.089533 -0.667877 9.548611 12.550547 26.154969 -15.510766 -23.194238 -13.250192 -45.370539 39.257823 10.843016 -8.843582 -13.817817 -2.229768 13.181497 -11.013610 -9.770777 -20.010048 20.417286 29.343243 -67.286209 -22.767813 -34.480114 13.329789 -17.302187 -13.371744 -30.949795 1.290225 -31.339846 70.998012 -44.428460 0.524720 10.022966 -1.127540 0.013264 0.017954 0.006708 13.371035 -30.117876 10.413814 26.009787 71.368393 16.809718 5.891862 9.266680 7.501611 -0.012835 -0.024521 0.000181
496.522086 57.121010 374.004796 -55.659851 -55.273381 4.248975 -1.288887 22.007441 -2.988195 -0.412806 9.788349 -1.245752 -0.412806 9.788349 -1.245752 -0.288721 7.342140 -0.925358 -5.519467 16.106051 -1.658586 -9.668331 -6.212338 -1.091162 -0.670347 9.549839 12.551047 26.151523 -15.500027 -23.189698 -13.253988 -45.372971 39.254270 10.846534 -8.841745 -13.811028 -2.232161 13.192179 -11.009480 -9.770614 -20.011938 20.421634 29.298816 -67.232920 -22.719070 -34.470948 13.273678 -17.274666 -13.375984 -30.941905 1.292105 -31.331169 70.997238 -44.415100 0.496357 10.022862 -1.137317 0.016654 0.017829 0.006110 13.374655 -30.111437 10.413545 26.018309 71.367777 16.820604 5.901451 9.257082 7.503251 -0.012803 -0.020220 0.001056
496.524411 57.123566 374.005280 -55.653212 -55.276213 4.243528 -1.288663 22.004736 -2.990777 -0.412557 9.787702 -1.246997 -0.412557 9.787702 -1.246997 -0.288517 7.341655 -0.926294 -5.517959 16.111006 -1.656063 -9.666263 -6.203048 -1.087335 -0.667011 9.553659 12.551899 26.160701 -15.497643 -23.183169 -13.264464 -45.370780 39.240299 10.849485 -8.832006 -13.789734 -2.235702 13.199507 -11.000820 -9.756676 -20.019436 20.418158 29.277436 -67.225937 -22.695433 -34.470755 13.256786 -17.276260 -13.375944 -30.936403 1.289716 -31.318559 70.994793 -44.396729 0.480040 10.024522 -1.141734 0.020317 0.018418 0.005943 13.375933 -30.107209 10.416420 26.007863 71.369256 16.810665 5.836473 9.272927 7.493110 -0.016335 -0.022143 0.001942
496.522616 57.125307 374.003698 -55.646436 -55.277708 4.234062 -1.287684 22.003903 -2.988386 -0.413385 9.787169 -1.247587 -0.413385 9.787169 -1.247587 -0.289128 7.341257 -0.926723 -5.513243 16.112216 -1.654032 -9.658182 -6.200870 -1.085333 -0.663865 9.546399 12.552355 26.164244 -15.491420 -23.176467 -13.264748 -45.367730 39.233590 10.845871 -8.833746 -13.789417 -2.232671 13.202360 -10.997959 -9.752713 -20.023565 20.421529 29.219366 -67.174171 -22.633311 -34.460864 13.206201 -17.250376 -13.378949 -30.932796 1.294726 -31.331377 70.989578 -44.405858 0.498347 10.026409 -1.140542 0.023735 0.017288 0.007052 13.376784 -30.104416 10.418698 26.001180 71.366211 16.801345 5.917994 9.243389 7.505366 -0.014348 -0.012040 0.006176
496.520689 57.127971 374.002697 -55.640560 -55.282622 4.230248 -1.285781 22.000331 -2.989542 -0.413456 9.785528 -1.249436 -0.413456 9.785528 -1.249436 -0.289155 7.340028 -0.928107 -5.507497 16.117530 -1.652904 -9.647715 -6.191185 -1.085641 -0.666706 9.554531 12.556824 26.167784 -15.487617 -23.171984 -13.272906 -45.364716 39.234150 10.846747 -8.830772 -13.787342 -2.232007 13.222030 -10.991343 -9.748777 -20.029968 20.417423 29.210937 -67.172981 -22.621223 -34.457744 13.200324 -17.258188 -13.387926 -30.924249 1.294334 -31.330425 70.981827 -44.407008 0.501561 10.024877 -1.139582 0.024036 0.018634 0.004684 13.376566 -30.095830 10.412055 25.999288 71.359667 16.802800 5.999080 9.215972 7.509919 -0.011508 -0.003326 0.009341
496.520418 57.129991 374.002140 -55.641188 -55.285193 4.236104 -1.285473 21.997064 -2.996744 -0.412141 9.783954 -1.251222 -0.412141 9.783954 -1.251222 -0.288146 7.338846 -0.929466 -5.502885 16.120103 -1.650109 -9.640055 -6.186425 -1.082268 -0.671413 9.554934 12.557575 26.173219 -15.485072 -23.166306 -13.284817 -45.352945 39.238514 10.854480 -8.835029 -13.788936 -2.230473 13.230627 -10.980723 -9.742417 -20.037733 20.408074 29.129020 -67.118305 -22.539509 -34.448373 13.143351 -17.232535 -13.386326 -30.922677 1.284585 -31.333236 70.984110 -44.408646 0.504781 10.018766 -1.138548 0.021638 0.020475 0.003575 13.389640 -30.087822 10.404709 25.970018 71.352939 16.776288 5.998604 9.217806 7.514362 -0.012798 -0.003624 0.006414
